<svg width="120" height="100" viewBox="0 0 120 100" fill="none" xmlns="http://www.w3.org/2000/svg">
<path d="M74.1909 47.7913C75.4717 48.5704 75.4717 50.4296 74.1909 51.2087L38.0394 73.199C36.7066 74.0097 35 73.0503 35 71.4902L35 27.5098C35 25.9497 36.7066 24.9903 38.0394 25.801L74.1909 47.7913Z" fill="#9B548C" fill-opacity="0.87"/>
<path d="M74.1909 47.7913C75.4717 48.5704 75.4717 50.4296 74.1909 51.2087L38.0394 73.199C36.7066 74.0097 35 73.0503 35 71.4902L35 27.5098C35 25.9497 36.7066 24.9903 38.0394 25.801L74.1909 47.7913Z" fill="#9B548C" fill-opacity="0.74"/>
<path d="M96.1909 47.7913C97.4717 48.5704 97.4717 50.4296 96.1909 51.2087L60.0394 73.199C58.7066 74.0097 57 73.0503 57 71.4902L57 27.5098C57 25.9497 58.7066 24.9903 60.0394 25.801L96.1909 47.7913Z" fill="#0080A7" fill-opacity="0.85"/>
</svg>
