<svg width="36" height="36" viewBox="0 0 36 36" fill="none" xmlns="http://www.w3.org/2000/svg">
<g clip-path="url(#clip0_116_108)">
<path d="M16.59 29C16.5892 28.8684 16.6145 28.738 16.6642 28.6161C16.714 28.4943 16.7873 28.3835 16.88 28.29L27.17 18L16.88 7.71003C16.7162 7.51873 16.6306 7.27265 16.6403 7.02097C16.65 6.7693 16.7543 6.53056 16.9324 6.35246C17.1105 6.17437 17.3493 6.07004 17.6009 6.06032C17.8526 6.05059 18.0987 6.1362 18.29 6.30003L30 18L18.29 29.71C18.1496 29.8476 17.9718 29.9408 17.7787 29.9779C17.5857 30.015 17.386 29.9944 17.2046 29.9186C17.0232 29.8429 16.8682 29.7153 16.7589 29.552C16.6495 29.3886 16.5908 29.1966 16.59 29Z" fill="black"/>
<path d="M5.59 29C5.58924 28.8684 5.61446 28.738 5.66423 28.6161C5.71399 28.4943 5.78732 28.3835 5.88 28.29L16.17 18L5.88 7.71003C5.71617 7.51873 5.63057 7.27265 5.64029 7.02097C5.65001 6.7693 5.75434 6.53056 5.93244 6.35246C6.11053 6.17437 6.34927 6.07004 6.60095 6.06032C6.85262 6.05059 7.0987 6.1362 7.29 6.30003L19 18L7.29 29.71C7.14962 29.8476 6.97179 29.9408 6.77874 29.9779C6.5857 30.015 6.386 29.9944 6.2046 29.9186C6.02321 29.8429 5.86817 29.7153 5.75886 29.552C5.64954 29.3886 5.59081 29.1966 5.59 29Z" fill="black"/>
</g>
<defs>
<clipPath id="clip0_116_108">
<rect width="36" height="36" fill="white" transform="translate(36) rotate(90)"/>
</clipPath>
</defs>
</svg>
